PathFileType	4	(X/Y/Z)	C:\Users\°ÂÌØÂü\Desktop\20210112\bx_n_0_502-Unnamed.trc
DataRate	CameraRate	NumFrames	NumMarkers	Units	OrigDataRate	OrigDataStartFrame	OrigNumFrames
50.00	50.00	       4	0	mm	50.00	95	       376
Frame#	Time	
		

95	1.880	-598.06714	234.24324	1053.91052	-691.40350	280.47379	873.62933	-598.17358	-7.94722	800.17322	-598.38477	212.18214	789.27789	-696.45154	269.93338	742.03943	-728.47760	252.01411	641.00403	-726.16089	244.45184	574.33362	-671.05347	18.65720	520.20563	-678.71558	195.70367	533.75104	-762.17725	260.18759	500.18369	-723.97162	70.62867	216.35744	-641.56207	-59.36534	163.26010	-761.52594	224.19124	205.50687	-599.64996	-61.93147	159.34979	-882.79968	296.08548	144.46088	-677.05945	58.65207	157.98351	-600.24652	38.59978	166.41249	-546.18866	-12.00265	162.15955	-517.81085	-72.96118	143.22667	-589.04224	183.83994	173.95723	-640.54681	274.32568	159.43575	-602.24829	274.61426	159.41362	-546.80817	213.42586	164.48959	-528.29987	304.19962	146.43954	-502.61444	114.91467	1836.09351	-589.87085	281.46292	1529.65845	-518.68903	98.84986	1327.82764	-796.13666	180.52786	184.53104	-569.76721	-80.27617	1532.21851	-793.35876	33.83425	175.32352	-795.70850	91.87421	1081.28625	-756.05023	-50.25491	488.27512	-755.07513	-21.74347	207.61235	-876.14905	-78.79788	141.54057	-677.81750	-74.38457	871.53894	-692.84552	-65.71307	755.41858	-709.85858	-37.12595	613.84991	-715.45038	-34.35167	567.93420	-719.61810	142.79399	217.90840				-597.60950	-11.89247	1042.89819	
96	1.900	-599.29846	233.35744	1053.17505	-693.27863	280.05319	873.30536	-600.52698	-8.52719	800.61829	-599.97552	211.41753	789.43457	-697.60425	269.88623	742.05872	-729.84943	251.39275	640.56079	-726.98779	244.74484	574.77869	-671.43579	18.46184	520.58722	-679.33295	195.40314	533.87183	-762.91754	259.98309	500.08868	-724.03888	70.18651	216.39984	-641.57159	-59.46939	163.19930	-761.31555	224.29889	204.95218	-599.64996	-61.93147	159.34979	-882.75586	296.10339	144.51614	-676.87384	58.37611	157.95538	-600.18793	38.88441	166.16800	-546.14587	-11.81924	162.25749	-517.78430	-73.04160	143.13478	-588.79980	183.74669	173.95415	-640.55695	274.30258	159.50244	-602.18451	274.46954	159.60226	-546.93915	213.30106	164.32111	-528.20984	304.20206	146.31906	-493.88388	115.19334	1833.69397	-582.76208	281.43277	1528.25330	-515.52612	98.63734	1325.24854	-795.99231	180.43269	184.23232	-563.78186	-80.30382	1530.53027	-793.39771	34.16479	175.54837	-796.86285	91.71120	1082.31287	-756.94629	-50.04987	488.01642	-755.24243	-21.63224	207.54086	-876.14905	-78.79788	141.54057	-680.30859	-74.96175	872.16907	-694.62421	-65.35270	755.18884	-711.39325	-37.29667	613.93396	-716.96198	-33.73085	567.26172	-719.79120	142.85587	217.99731				-599.56885	-12.01094	1042.31006	
97	1.920	-600.30341	233.03986	1052.84473	-694.54529	280.31308	874.09900	-602.57672	-8.86464	800.90118	-601.26752	210.96397	789.82733	-698.87195	269.38251	741.87671	-730.57904	251.48466	640.98376	-727.77258	244.21516	574.39410	-672.84766	18.33285	520.69092	-680.39899	195.28966	533.84692	-763.74493	260.13641	500.17206	-723.71069	70.94736	217.59335	-641.69635	-59.46665	163.08195	-761.42627	224.41713	204.98238	-599.53693	-61.95308	159.30931	-882.52686	295.95218	144.47594	-676.98761	58.46128	158.06728	-600.15131	38.86739	166.10884	-546.09882	-11.78596	162.10794	-517.78387	-73.07580	142.91087	-588.98816	183.44861	173.51123	-640.57935	274.38858	159.51448	-602.25684	274.46149	159.66182	-547.00104	213.20657	164.31813	-528.30585	304.11691	146.33821	-485.31335	115.48477	1831.08887	-575.75140	281.30957	1526.37964	-512.45996	97.93460	1322.50635	-796.11597	180.45911	184.43744	-556.61285	-81.26078	1528.96851	-793.23047	34.44216	175.59309	-798.27197	91.94839	1083.13184	-757.82300	-50.09551	488.18866				-876.14905	-78.79788	141.54057	-682.77173	-75.06227	872.19208	-696.57208	-65.63741	755.26691	-712.71936	-37.27481	613.86237	-717.90930	-34.41666	568.00372	-720.00793	142.78578	217.96913				-601.56116	-12.88319	1041.81152	
98	1.940	-602.03558	231.72066	1051.99500	-696.19806	279.11472	873.95825	-604.87128	-9.19526	800.65851	-602.91272	210.45836	789.57941	-699.84924	269.17807	741.79297	-731.51379	251.14380	640.57672	-728.73535	243.84140	574.32709	-673.75867	18.39632	521.10864	-681.24426	194.87129	534.34705	-764.12689	260.13968	500.11844	-723.57166	71.11610	217.54202	-641.57910	-59.55571	163.20244	-761.27722	224.41595	204.78548	-599.53693	-61.95308	159.30931	-882.75452	296.09305	144.50787	-676.98761	58.46128	158.06728	-600.02716	38.79259	166.42773	-546.05524	-11.85705	161.98309	-517.91980	-73.01032	143.17534	-589.06042	183.28943	173.35614	-640.52533	274.22528	159.59462	-602.18774	274.38019	159.72305	-547.05786	213.13899	164.03511	-528.20984	304.20206	146.31906	-476.74277	114.92371	1827.98926	-568.47473	280.98349	1524.37109	-508.98276	97.38150	1319.95532	-795.96295	180.60443	184.48970	-549.93011	-81.45147	1527.09656	-793.23486	34.37834	175.65211	-799.53027	91.59798	1083.79663	-759.07117	-50.36625	488.20569	-706.91510	74.59303	573.09918	-876.12219	-78.89765	141.41621	-685.12775	-75.30835	872.18109	-698.75531	-66.22696	755.55725	-714.18317	-37.19376	613.47650	-719.42139	-34.85561	568.46307	-719.79120	142.85587	217.99731	-755.13293	-21.80494	207.64050	-603.66180	-12.88688	1041.36584	-678.93018	154.75385	158.20721	
